<svg width="36" height="34" fill="none" xmlns="http://www.w3.org/2000/svg"><path fill="#4B1C6F" d="M0 0H35.265V33.882H0z"/><path d="M10.81 12.618v3.4h4.58v2.5h-4.58v3.47h5.98v2.6H7.41v-14.57h9.38v2.6h-5.98zm10.409 2.72c.2-.186.406-.36.62-.52a3.788 3.788 0 011.47-.66c.286-.066.596-.1.93-.1.566 0 1.066.1 1.5.3.44.194.81.467 1.11.82.3.347.526.763.68 1.25.153.48.23 1.003.23 1.57v6.59h-3.1v-6.59c0-.507-.117-.9-.35-1.18-.234-.287-.577-.43-1.03-.43-.34 0-.66.073-.96.22-.294.14-.58.334-.86.58v7.4h-3.1v-10.37h1.92c.386 0 .64.174.76.52l.18.6z" fill="gold"/></svg>