<svg width="36" height="34" fill="none" xmlns="http://www.w3.org/2000/svg"><path fill="#4B1C6F" d="M0 0H35.265V33.882H0z"/><path d="M10.81 12.618v3.69h4.98v2.61h-4.98v5.67h-3.4v-14.57h9.38v2.6h-5.98zm9.706 3.2c.32-.56.687-1 1.1-1.32.42-.32.9-.48 1.44-.48.467 0 .847.11 1.14.33l-.2 2.28c-.033.147-.09.247-.17.3a.52.52 0 01-.31.08c-.053 0-.123-.003-.21-.01a41.59 41.59 0 00-.27-.02 3.802 3.802 0 00-.29-.03 1.836 1.836 0 00-.26-.02c-.453 0-.816.12-1.09.36-.266.24-.493.574-.68 1v6.3h-3.1v-10.37h1.84c.154 0 .28.014.38.04.107.027.194.07.26.13a.451.451 0 01.16.22c.04.094.074.207.1.34l.16.87z" fill="gold"/></svg>