<svg width="29" height="1087" fill="none" xmlns="http://www.w3.org/2000/svg"><path d="M16.934 2.5a2.5 2.5 0 00-5 0h5zm-2.5 1084l14.433-25H0l14.434 25zM11.934 7.519a2.5 2.5 0 005 0h-5zm5 10.037a2.5 2.5 0 10-5 0h5zm-5 10.037a2.5 2.5 0 005 0h-5zm5 10.037a2.5 2.5 0 00-5 0h5zm-5 10.037a2.5 2.5 0 005 0h-5zm5 10.037a2.5 2.5 0 00-5 0h5zm-5 10.037a2.5 2.5 0 105 0h-5zm5 10.037a2.5 2.5 0 00-5 0h5zm-5 10.037a2.5 2.5 0 005 0h-5zm5 10.037a2.5 2.5 0 00-5 0h5zm-5 10.037a2.5 2.5 0 105 0h-5zm5 10.037a2.5 2.5 0 10-5 0h5zm-5 10.037a2.5 2.5 0 105 0h-5zm5 10.037a2.5 2.5 0 10-5 0h5zm-5 10.037a2.5 2.5 0 105 0h-5zm5 10.037a2.5 2.5 0 10-5 0h5zm-5 10.037a2.5 2.5 0 105 0h-5zm5 10.037a2.5 2.5 0 10-5 0h5zm-5 10.037a2.5 2.5 0 105 0h-5zm5 10.037a2.5 2.5 0 10-5 0h5zm-5 10.037a2.5 2.5 0 105 0h-5zm5 10.037a2.5 2.5 0 00-5 0h5zm-5 10.037a2.5 2.5 0 105 0h-5zm5 10.037a2.5 2.5 0 00-5 0h5zm-5 10.037a2.5 2.5 0 105 0h-5zm5 10.037a2.5 2.5 0 00-5 0h5zm-5 10.037a2.5 2.5 0 105 0h-5zm5 10.037a2.5 2.5 0 00-5 0h5zm-5 10.038a2.5 2.5 0 005 0h-5zm5 10.037a2.5 2.5 0 10-5 0h5zm-5 10.037a2.5 2.5 0 005 0h-5zm5 10.037a2.5 2.5 0 10-5 0h5zm-5 10.037a2.5 2.5 0 005 0h-5zm5 10.037a2.5 2.5 0 10-5 0h5zm-5 10.037a2.5 2.5 0 105 0h-5zm5 10.037a2.5 2.5 0 10-5 0h5zm-5 10.037a2.5 2.5 0 105 0h-5zm5 10.037a2.5 2.5 0 10-5 0h5zm-5 10.037a2.5 2.5 0 105 0h-5zm5 10.037a2.5 2.5 0 10-5 0h5zm-5 10.037a2.5 2.5 0 105 0h-5zm5 10.037a2.5 2.5 0 10-5 0h5zm-5 10.037a2.5 2.5 0 105 0h-5zm5 10.037a2.5 2.5 0 10-5 0h5zm-5 10.037a2.5 2.5 0 105 0h-5zm5 10.037a2.5 2.5 0 00-5 0h5zm-5 10.037a2.5 2.5 0 105 0h-5zm5 10.037a2.5 2.5 0 00-5 0h5zm-5 10.037a2.5 2.5 0 105 0h-5zm5 10.038a2.5 2.5 0 10-5 0h5zm-5 10.037a2.5 2.5 0 005 0h-5zm5 10.037a2.5 2.5 0 10-5 0h5zm-5 10.037a2.5 2.5 0 005 0h-5zm5 10.037a2.5 2.5 0 10-5 0h5zm-5 10.037a2.5 2.5 0 005 0h-5zm5 10.037a2.5 2.5 0 10-5 0h5zm-5 10.037a2.5 2.5 0 105 0h-5zm5 10.037a2.5 2.5 0 10-5 0h5zm-5 10.037a2.5 2.5 0 105 0h-5zm5 10.037a2.5 2.5 0 10-5 0h5zm-5 10.037a2.5 2.5 0 105 0h-5zm5 10.037a2.5 2.5 0 10-5 0h5zm-5 10.037a2.5 2.5 0 105 0h-5zm5 10.037a2.5 2.5 0 10-5 0h5zm-5 10.037a2.5 2.5 0 105 0h-5zm5 10.037a2.5 2.5 0 00-5 0h5zm-5 10.037a2.5 2.5 0 105 0h-5zm5 10.037a2.5 2.5 0 00-5 0h5zm-5 10.037a2.5 2.5 0 105 0h-5zm5 10.037a2.5 2.5 0 00-5 0h5zm-5 10.038a2.5 2.5 0 005 0h-5zm5 10.037a2.5 2.5 0 10-5 0h5zm-5 10.037a2.5 2.5 0 005 0h-5zm5 10.037a2.5 2.5 0 10-5 0h5zm-5 10.037a2.5 2.5 0 005 0h-5zm5 10.037a2.5 2.5 0 10-5 0h5zm-5 10.037a2.5 2.5 0 105 0h-5zm5 10.037a2.5 2.5 0 10-5 0h5zm-5 10.037a2.5 2.5 0 105 0h-5zm5 10.037a2.5 2.5 0 10-5 0h5zm-5 10.037a2.5 2.5 0 105 0h-5zm5 10.037a2.5 2.5 0 10-5 0h5zm-5 10.037a2.5 2.5 0 105 0h-5zm5 10.037a2.5 2.5 0 10-5 0h5zm-5 10.037a2.5 2.5 0 105 0h-5zm5 10.037a2.5 2.5 0 10-5 0h5zm-5 10.037a2.5 2.5 0 105 0h-5zm5 10.037a2.5 2.5 0 00-5 0h5zm-5 10.037a2.5 2.5 0 105 0h-5zm5 10.037a2.5 2.5 0 00-5 0h5zm-5 10.037a2.5 2.5 0 105 0h-5zm5 10.038a2.5 2.5 0 10-5 0h5zm-5 10.037a2.5 2.5 0 005 0h-5zm5 10.037a2.5 2.5 0 10-5 0h5zm-5 10.037a2.5 2.5 0 005 0h-5zm5 10.037a2.5 2.5 0 10-5 0h5zm-5 10.037a2.5 2.5 0 105 0h-5zm5 10.037a2.5 2.5 0 10-5 0h5zm-5 10.037a2.5 2.5 0 105 0h-5zm5 10.041a2.5 2.5 0 10-5 0h5zm-5 10.03a2.5 2.5 0 005 0h-5zm5 10.04a2.5 2.5 0 00-5 0h5zm-5 10.04a2.5 2.5 0 005 0h-5zm5 10.03a2.5 2.5 0 00-5 0h5zm-5 10.04a2.5 2.5 0 005 0h-5zm5 10.04a2.5 2.5 0 00-5 0h5zm-5 10.03c0 1.39 1.119 2.5 2.5 2.5 1.38 0 2.5-1.11 2.5-2.5h-5zm5 10.04a2.5 2.5 0 00-5 0h5zM14.433 2.5h-2.5v5.019h5V2.5h-2.5zm0 15.056h-2.5v10.037h5V17.556h-2.5zm0 20.074h-2.5v10.037h5V37.63h-2.5zm0 20.074h-2.5V67.74h5V57.704h-2.5zm0 20.074h-2.5v10.037h5V77.778h-2.5zm0 20.074h-2.5v10.037h5V97.852h-2.5zm0 20.074h-2.5v10.037h5v-10.037h-2.5zm0 20.074h-2.5v10.037h5V138h-2.5zm0 20.074h-2.5v10.037h5v-10.037h-2.5zm0 20.074h-2.5v10.037h5v-10.037h-2.5zm0 20.074h-2.5v10.037h5v-10.037h-2.5zm0 20.074h-2.5v10.037h5v-10.037h-2.5zm0 20.074h-2.5v10.037h5V238.37h-2.5zm0 20.074h-2.5v10.037h5v-10.037h-2.5zm0 20.074h-2.5v10.038h5v-10.038h-2.5zm0 20.075h-2.5v10.037h5v-10.037h-2.5zm0 20.074h-2.5v10.037h5v-10.037h-2.5zm0 20.074h-2.5v10.037h5v-10.037h-2.5zm0 20.074h-2.5v10.037h5v-10.037h-2.5zm0 20.074h-2.5v10.037h5v-10.037h-2.5zm0 20.074h-2.5V409h5v-10.037h-2.5zm0 20.074h-2.5v10.037h5v-10.037h-2.5zm0 20.074h-2.5v10.037h5v-10.037h-2.5zm0 20.074h-2.5v10.037h5v-10.037h-2.5zm0 20.074h-2.5v10.037h5v-10.037h-2.5zm0 20.075h-2.5v10.037h5v-10.037h-2.5zm0 20.074h-2.5v10.037h5v-10.037h-2.5zm0 20.074h-2.5v10.037h5v-10.037h-2.5zm0 20.074h-2.5v10.037h5v-10.037h-2.5zm0 20.074h-2.5v10.037h5V579.63h-2.5zm0 20.074h-2.5v10.037h5v-10.037h-2.5zm0 20.074h-2.5v10.037h5v-10.037h-2.5zm0 20.074h-2.5v10.037h5v-10.037h-2.5zm0 20.074h-2.5v10.037h5v-10.037h-2.5zm0 20.074h-2.5v10.037h5V680h-2.5zm0 20.074h-2.5v10.038h5v-10.038h-2.5zm0 20.075h-2.5v10.037h5v-10.037h-2.5zm0 20.074h-2.5v10.037h5v-10.037h-2.5zm0 20.074h-2.5v10.037h5v-10.037h-2.5zm0 20.074h-2.5v10.037h5v-10.037h-2.5zm0 20.074h-2.5v10.037h5v-10.037h-2.5zm0 20.074h-2.5v10.037h5v-10.037h-2.5zm0 20.074h-2.5v10.037h5v-10.037h-2.5zm0 20.074h-2.5v10.037h5v-10.037h-2.5zm0 20.074h-2.5v10.037h5v-10.037h-2.5zm0 20.074h-2.5v10.037h5v-10.037h-2.5zm0 20.075h-2.5v10.037h5V920.89h-2.5zm0 20.074h-2.5v10.037h5v-10.037h-2.5zm0 20.074h-2.5v10.037h5v-10.037h-2.5zm0 20.074h-2.5v10.037h5v-10.037h-2.5zm0 20.078h-2.5v10.03h5v-10.03h-2.5zm0 20.07h-2.5v10.04h5v-10.04h-2.5zm0 20.07h-2.5v10.04h5v-10.04h-2.5zm0 20.08h-2.5v10.03h5v-10.03h-2.5z" fill="#4B1C6F"/></svg>