<svg width="115" height="48" fill="none" xmlns="http://www.w3.org/2000/svg"><path d="M9.11 26.596c-.201 0-.402.114-.602.343a9.38 9.38 0 00-.666.817c-.23.33-.487.695-.774 1.096a6.98 6.98 0 01-.988 1.074c-.358.33-.766.609-1.225.838-.458.215-.98.322-1.568.322-.272 0-.587-.014-.945-.043a4.455 4.455 0 01-.988-.15c-.301-.1-.56-.251-.774-.452-.2-.214-.3-.508-.3-.88 0-.502.15-.953.45-1.354a5.026 5.026 0 011.204-1.117 9.48 9.48 0 011.654-.86A19.664 19.664 0 017.11 25.2c.53-.115.96-.201 1.29-.259l4.189-6.681c.186-.301.437-.616.752-.946.315-.329.659-.63 1.031-.902.372-.286.76-.523 1.16-.709.416-.186.81-.28 1.182-.28.072 0 .2.015.387.044.2.028.393.129.58.3.2.173.372.452.515.838.158.387.237.939.237 1.655a.757.757 0 00-.28.15c-.086.057-.186.122-.3.194-.1.057-.223.114-.366.171-.129.043-.279.065-.45.065.228-.473.307-.845.235-1.117-.057-.287-.2-.48-.43-.58-.228-.1-.515-.122-.859-.065-.343.057-.687.18-1.03.365a3.626 3.626 0 00-.946.688 2.496 2.496 0 00-.58.967l-3.631 6.144v.28c.587.415 1.031.866 1.332 1.353.315.487.551.981.709 1.482.172.487.3.967.387 1.44.085.473.193.895.322 1.267.143.387.336.702.58.946.258.258.637.415 1.139.472v.065c.014.029.021.05.021.064 0 .172-.072.301-.215.387-.129.1-.286.172-.472.215-.187.057-.38.093-.58.107a6.166 6.166 0 01-.452.022c-.3-.258-.551-.602-.752-1.032a11.89 11.89 0 01-.494-1.375 58.248 58.248 0 01-.408-1.503 9.293 9.293 0 00-.408-1.375 3.875 3.875 0 00-.559-1.032 1.08 1.08 0 00-.838-.43zM1.44 29.26c0 .172.057.308.171.408.13.1.28.172.452.215.171.043.343.071.515.086.186.014.33.021.43.021.387 0 .816-.1 1.289-.3.473-.215.91-.488 1.31-.817.416-.33.76-.695 1.032-1.096.286-.415.43-.83.43-1.246-1.118 0-2.163.2-3.137.602-.96.387-1.784 1.053-2.471 1.998a.165.165 0 01-.022.064v.065zm13.47.343c0-.2.022-.372.065-.515.043-.158.121-.358.236-.602.1-.143.28-.415.537-.816.272-.401.551-.824.838-1.268.3-.444.58-.859.838-1.246.272-.4.458-.68.558-.838.13-.186.23-.286.301-.3.072-.015.208-.022.408-.022.13 0 .265.007.409.022.157.014.257.114.3.3a6.03 6.03 0 01-.816 1.397l-.988 1.289c-.315.43-.595.874-.838 1.332a2.946 2.946 0 00-.365 1.44c.057 0 .143.007.257.02.13.015.265.03.409.044.143.014.272.029.386.043a.881.881 0 00.28 0c.085-.014.229-.043.43-.086.214-.057.436-.115.665-.172.244-.057.473-.115.688-.172.215-.057.365-.1.451-.129v.15a.59.59 0 01.021.13c0 .286-.136.522-.408.709a3.267 3.267 0 01-.924.45c-.343.1-.701.172-1.074.215-.358.03-.637.043-.838.043a3.61 3.61 0 01-.666-.064 1.937 1.937 0 01-.58-.258 1.536 1.536 0 01-.43-.43c-.1-.186-.15-.408-.15-.665zm6.252-12.59c.186 0 .358.008.516.022.157.014.293.05.408.108a.689.689 0 01.28.257c.07.115.107.273.107.473v.28c0 .1-.015.2-.043.3a.507.507 0 01-.108.236c-.057.058-.15.086-.279.086a.635.635 0 01-.494-.214 1.477 1.477 0 01-.258-.495 2.947 2.947 0 01-.107-.601 6.95 6.95 0 01-.022-.451zm-1.01 11.602c0-.272.036-.508.108-.709.086-.2.293-.3.623-.3.029 0 .093.007.193.021.115 0 .194.007.236.021-.014.674.094 1.182.323 1.526.229.33.659.494 1.289.494.515 0 1.024-.079 1.525-.236a4.468 4.468 0 001.354-.688c.415-.315.744-.695.988-1.139a2.94 2.94 0 00.387-1.503c0-.344-.122-.588-.366-.73a3.175 3.175 0 00-.773-.345 8.498 8.498 0 01-.795-.279c-.229-.114-.344-.308-.344-.58 0-.33.2-.645.602-.945.401-.301.874-.566 1.418-.795a9.376 9.376 0 011.611-.559c.545-.143.96-.215 1.246-.215 0 .416-.093.71-.279.881a1.84 1.84 0 01-.645.408c-.257.1-.522.2-.794.301a1.243 1.243 0 00-.645.516c.23.186.415.358.559.515.157.144.279.301.365.473.086.172.143.365.172.58.028.2.043.444.043.73 0 .745-.165 1.426-.494 2.042a5.293 5.293 0 01-1.247 1.568 5.948 5.948 0 01-1.761 1.01 6.106 6.106 0 01-2.02.343c-.372 0-.737-.043-1.095-.128-.344-.1-.652-.251-.924-.452a2.278 2.278 0 01-.623-.752c-.158-.3-.237-.658-.237-1.074zm10.377 1.268c-.243-.544-.35-1.074-.322-1.59a4.24 4.24 0 01.344-1.482c.215-.473.487-.896.816-1.268a6.386 6.386 0 011.096-.988 4.703 4.703 0 011.16-.645c.401-.143.752-.2 1.053-.172.3.015.537.122.709.323.172.2.229.508.172.923 0 .559-.18 1.046-.538 1.461-.343.416-.73.788-1.16 1.117-.415.33-.802.63-1.16.903-.343.258-.515.501-.515.73 0 .13.071.23.214.301.158.072.337.129.537.172.201.029.402.05.602.064.2.015.344.03.43.043 1.346-.286 2.356-.458 3.03-.515.672-.072 1.095-.065 1.267.021.171.072.136.194-.108.366-.229.157-.587.329-1.074.515-.487.172-1.053.33-1.697.473-.645.143-1.282.229-1.912.258a6.336 6.336 0 01-1.762-.194c-.53-.143-.924-.415-1.182-.816zm3.76-4.899c-.286 0-.559.08-.816.237a3.103 3.103 0 00-.71.601c-.2.23-.372.487-.515.774a4.25 4.25 0 00-.322.773c.028.015.05.022.064.022h.065c.2 0 .43-.086.687-.258.258-.172.502-.38.73-.623.23-.258.423-.523.58-.795.158-.272.237-.516.237-.73zm30.55 5.028c0-.831.108-1.669.323-2.514.23-.86.509-1.704.838-2.535.344-.83.709-1.633 1.096-2.406.386-.788.752-1.526 1.095-2.213v-.28a372.213 372.213 0 01-1.89 2.041c-.416.459-.86.946-1.332 1.461-.459.502-.903.982-1.332 1.44-.416.458-.788.874-1.117 1.246l-.73.795c-.158.172-.309.43-.452.773-.143.33-.3.666-.473 1.01a4.652 4.652 0 01-.58.902c-.2.258-.43.387-.687.387-.215 0-.387-.021-.516-.064a.515.515 0 01-.258-.194.912.912 0 01-.107-.365 5.29 5.29 0 01-.022-.515c0-1.06.15-2.085.452-3.073.315-1.002.644-2.02.988-3.05v-.28l-.15.15a.518.518 0 00-.13.13 38.78 38.78 0 00-1.052 1.675c-.358.587-.73 1.175-1.117 1.762a19.97 19.97 0 01-1.246 1.654c-.445.53-.924 1.003-1.44 1.418a6.854 6.854 0 01-1.697.967 5.278 5.278 0 01-1.998.365c-.158 0-.373-.007-.645-.021a3.636 3.636 0 01-.773-.13 1.75 1.75 0 01-.645-.343c-.172-.157-.258-.38-.258-.666 0-.115.065-.258.194-.43.143-.186.265-.315.365-.386.2.33.365.551.494.666.143.1.344.15.602.15.43 0 .88-.064 1.353-.193.487-.143.953-.33 1.397-.559.458-.23.888-.494 1.289-.795a5.86 5.86 0 001.01-.945c.214-.287.472-.652.773-1.096.315-.458.645-.952.988-1.482.358-.545.724-1.096 1.096-1.655.372-.558.73-1.088 1.074-1.59.358-.515.688-.973.988-1.374.301-.401.559-.702.774-.903.2 0 .35.036.451.108a.48.48 0 01.215.258c.043.114.064.25.064.408v.494c0 .601-.093 1.189-.279 1.762a20.962 20.962 0 01-.58 1.675c-.215.53-.415 1.053-.602 1.569a4.803 4.803 0 00-.257 1.525v.15a.907.907 0 01.021.15 1056.488 1056.488 0 005.951-6.638 233.93 233.93 0 011.676-1.869c.43-.487.773-.86 1.031-1.117.258-.272.451-.459.58-.559.144-.1.258-.15.344-.15.143 0 .25.043.322.129a.57.57 0 01.13.3c.028.115.035.237.02.366v.322c0 .602-.114 1.218-.343 1.848a14.396 14.396 0 01-.838 1.912c-.33.644-.695 1.303-1.096 1.976-.386.66-.752 1.34-1.095 2.041a17.1 17.1 0 00-.838 2.149 7.66 7.66 0 00-.322 2.213c0 .386.007.673.021.86a.951.951 0 00.129.429c.072.129.186.258.344.387.157.143.38.365.666.665-.33.187-.652.258-.967.215-.3-.028-.566-.15-.795-.365-.215-.215-.372-.508-.473-.88-.1-.373-.107-.796-.021-1.268zm4.555-.13c-.243-.544-.35-1.073-.322-1.589.029-.53.144-1.024.344-1.482.215-.473.487-.896.816-1.268a6.39 6.39 0 011.096-.988 4.703 4.703 0 011.16-.645c.401-.143.752-.2 1.053-.172.3.015.537.122.709.323.172.2.23.508.172.923 0 .559-.18 1.046-.537 1.461-.344.416-.73.788-1.16 1.117-.416.33-.802.63-1.16.903-.344.258-.516.501-.516.73 0 .13.071.23.215.301.157.072.336.129.537.172.2.029.4.05.601.064.2.015.344.03.43.043 1.346-.286 2.356-.458 3.03-.515.672-.072 1.095-.065 1.267.021.172.072.136.194-.108.366-.229.157-.587.329-1.074.515a14.78 14.78 0 01-1.697.473c-.644.143-1.282.229-1.912.258a6.335 6.335 0 01-1.762-.194c-.53-.143-.924-.415-1.181-.816zm3.76-4.898c-.286 0-.558.08-.816.237a3.107 3.107 0 00-.71.601c-.2.23-.371.487-.515.774-.143.272-.25.53-.322.773.029.015.05.022.065.022h.064c.2 0 .43-.086.687-.258.258-.172.502-.38.73-.623.23-.258.423-.523.581-.795.157-.272.236-.516.236-.73zm3.373 4.62c0-.201.022-.373.065-.516.043-.158.121-.358.236-.602.1-.143.28-.415.537-.816.272-.401.552-.824.838-1.268.3-.444.58-.859.838-1.246.272-.4.458-.68.559-.838.129-.186.229-.286.3-.3.072-.015.208-.022.409-.022.129 0 .265.007.408.022.157.014.258.114.3.3a6.03 6.03 0 01-.816 1.397l-.988 1.289c-.315.43-.594.874-.838 1.332a2.946 2.946 0 00-.365 1.44c.057 0 .143.007.258.02.129.015.265.03.408.044.143.014.272.029.386.043a.881.881 0 00.28 0c.086-.014.229-.043.43-.086.214-.057.436-.115.665-.172.244-.057.473-.115.688-.172.215-.057.365-.1.451-.129v.15a.59.59 0 01.022.13c0 .286-.136.522-.409.709a3.268 3.268 0 01-.923.45c-.344.1-.702.172-1.075.215-.358.03-.637.043-.838.043a3.61 3.61 0 01-.665-.064 1.937 1.937 0 01-.58-.258 1.534 1.534 0 01-.43-.43c-.1-.186-.15-.408-.15-.665zm6.252-12.59c.187 0 .358.007.516.021.157.014.293.05.408.108a.689.689 0 01.28.257c.071.115.107.273.107.473v.28c0 .1-.014.2-.043.3a.508.508 0 01-.108.236c-.057.058-.15.086-.279.086a.635.635 0 01-.494-.214 1.477 1.477 0 01-.258-.495 2.947 2.947 0 01-.107-.601 6.95 6.95 0 01-.022-.451zm-1.138 11.902c0-.415.078-.83.236-1.246.157-.415.344-.824.559-1.225.214-.415.43-.823.644-1.224.23-.401.401-.795.516-1.182-.272.158-.509.25-.71.28a9.216 9.216 0 01-.687.02h-.28a3.673 3.673 0 00-.278-.02 1.96 1.96 0 01.472-.838 3.31 3.31 0 01.774-.645c.3-.186.608-.337.924-.451.329-.13.623-.23.88-.301.43-.673.781-1.346 1.053-2.02.272-.687.544-1.353.817-1.998a13.64 13.64 0 01.988-1.869c.386-.601.902-1.153 1.547-1.654l.107.816-2.685 6.295c.157-.043.35-.086.58-.129l.687-.128c.244-.043.473-.08.688-.108.229-.043.422-.086.58-.129h.129a1.01 1.01 0 01.666.086c.129.072.236.23.322.473-.974.286-1.855.587-2.643.902a7.08 7.08 0 00-2.062 1.246c-.573.502-1.046 1.146-1.418 1.934-.358.773-.609 1.769-.752 2.986 0 .258.014.494.043.71.029.214.208.343.537.386.33 0 .637-.065.924-.194.286-.128.566-.265.838-.408.272-.157.544-.3.816-.43.287-.128.594-.193.924-.193 0 .344-.15.66-.451.945a4.48 4.48 0 01-1.096.752 6.14 6.14 0 01-1.289.495c-.444.114-.81.171-1.096.171-.286 0-.544-.057-.773-.171a1.81 1.81 0 01-.58-.452c-.143-.2-.258-.43-.344-.687a2.956 2.956 0 01-.107-.795zm6.08 1.117v-.3a.8.8 0 01.021-.194 1.49 1.49 0 01.108-.215c.043-.071.1-.165.172-.28.114-.2.329-.55.644-1.052.315-.501.652-1.031 1.01-1.59.358-.558.694-1.088 1.01-1.59.329-.5.558-.852.687-1.052.014-.015.05-.022.108-.022h.3c.072 0 .115.007.13.022.013.014.042.05.085.107.057.057.115.122.172.194a.97.97 0 01.172.171c.057.058.1.086.129.086a.798.798 0 00.408-.129c.143-.085.286-.179.43-.279.157-.114.315-.215.472-.3a1.06 1.06 0 011.01 0c.158.085.294.193.408.322.115.129.2.272.258.43.072.157.108.314.108.472 0 .33-.05.645-.15.945-.087.301-.187.602-.302.903-.114.286-.222.58-.322.88a3.121 3.121 0 00-.129.903c0 .315.036.544.108.687.071.13.272.194.601.194.387 0 .752-.058 1.096-.172a3.574 3.574 0 011.096-.172c0 .344-.108.63-.323.86-.2.229-.458.415-.773.558-.3.129-.63.222-.988.28a7.665 7.665 0 01-.946.064c-.544 0-.945-.15-1.203-.451-.243-.316-.365-.731-.365-1.247 0-.343.057-.666.172-.966.129-.301.265-.595.408-.881.157-.287.3-.573.43-.86.129-.286.193-.594.193-.924 0-.085-.014-.2-.043-.343-.029-.143-.122-.215-.28-.215-.472 0-.902.15-1.288.451-.373.3-.717.68-1.032 1.139-.3.458-.58.952-.837 1.482-.244.53-.48 1.024-.71 1.483a8.861 8.861 0 01-.623 1.138c-.2.301-.408.451-.622.451-.301 0-.545-.093-.731-.279a.96.96 0 01-.28-.709zm9.367-.15c-.244-.544-.351-1.074-.322-1.59a4.24 4.24 0 01.343-1.482c.215-.473.487-.896.817-1.268a6.386 6.386 0 011.096-.988 4.698 4.698 0 011.16-.645c.401-.143.752-.2 1.052-.172.301.015.537.122.709.323.172.2.23.508.172.923 0 .559-.179 1.046-.537 1.461-.344.416-.73.788-1.16 1.117-.415.33-.802.63-1.16.903-.344.258-.516.501-.516.73 0 .13.072.23.215.301.158.072.337.129.537.172.2.029.401.05.602.064.2.015.343.03.429.043 1.347-.286 2.357-.458 3.03-.515.673-.072 1.095-.065 1.267.021.172.072.136.194-.107.366-.229.157-.587.329-1.074.515-.487.172-1.053.33-1.698.473-.644.143-1.282.229-1.912.258a6.335 6.335 0 01-1.762-.194c-.53-.143-.923-.415-1.181-.816zm3.76-4.899c-.287 0-.559.08-.817.237a3.108 3.108 0 00-.709.601c-.2.23-.372.487-.515.774a4.25 4.25 0 00-.323.773c.029.015.05.022.065.022h.064c.2 0 .43-.086.688-.258.258-.172.501-.38.73-.623.229-.258.423-.523.58-.795.158-.272.237-.516.237-.73zm8.25 4.362c0-.43.086-.824.257-1.182.187-.372.387-.723.602-1.053.215-.33.408-.659.58-.988a2.108 2.108 0 00.258-1.354c0-.128-.014-.25-.043-.365a.46.46 0 00-.129-.279.27.27 0 00-.236-.129.347.347 0 00-.086.022c-.029 0-.043.007-.043.021-.201.272-.444.58-.731.924-.272.33-.565.659-.881.988-.315.33-.623.645-.923.945-.301.301-.573.552-.817.752-.172.158-.408.373-.709.645-.286.272-.58.544-.881.816-.286.258-.544.487-.773.688-.215.2-.337.3-.365.3l-.989-.837a.947.947 0 00.387-.086c.115-.058.229-.122.344-.194a12.82 12.82 0 002.32-1.976 34.694 34.694 0 002.063-2.406c.028-.043.1-.165.215-.366.128-.214.265-.45.408-.709.143-.272.286-.537.429-.794.144-.273.251-.488.323-.645.086-.186.136-.337.15-.451l.065-.258a.27.27 0 01.128-.15c.058-.029.18-.043.366-.043.028 0 .093.007.193.021a.875.875 0 01.215.043c.186.387.351.73.494 1.031.143.301.265.588.365.86.101.258.172.523.215.795.057.272.086.573.086.902-.186.473-.394.96-.623 1.46-.229.488-.422.953-.58 1.397a5.645 5.645 0 00-.301 1.204c-.028.358.05.644.237.859.2.2.529.308.988.322.472.014 1.138-.107 1.998-.365.229.115.25.258.064.43-.186.157-.472.308-.859.45a8.584 8.584 0 01-1.246.366c-.444.086-.817.107-1.117.064-.273 0-.502-.043-.688-.128-.172-.1-.315-.23-.43-.387a2.035 2.035 0 01-.236-.537 2.965 2.965 0 01-.064-.623z" fill="#F2F2F2"/></svg>